<?xml version="1.0" encoding="UTF-8" standalone="no"?>
<!DOCTYPE svg PUBLIC "-//W3C//DTD SVG 1.1//EN" "http://www.w3.org/Graphics/SVG/1.1/DTD/svg11.dtd">
<svg width="100%" height="100%" viewBox="0 0 1920 1080" version="1.1" xmlns="http://www.w3.org/2000/svg" xmlns:xlink="http://www.w3.org/1999/xlink" xml:space="preserve" style="fill-rule:evenodd;clip-rule:evenodd;stroke-linejoin:round;stroke-miterlimit:1.41421;">
    <g id="Background">
        <g id="Brand-background">
            <g transform="matrix(1,0,0,1,-19.1793,18.0764)">
                <text x="166.853px" y="200.451px" style="font-family:'RavensbourneSans-Bold', 'Ravensbourne Sans';font-weight:700;font-size:96px;">R</text>
            </g>
            <g transform="matrix(1,0,0,1,-1466.55,-625.526)">
                <path d="M1795.04,748.516L1795.77,748.595L1796.48,748.749L1797.18,748.978L1797.85,749.278L1798.48,749.647L1799.07,750.08L1799.61,750.572L1800.1,751.118L1800.53,751.712L1800.89,752.348L1801.19,753.018L1801.41,753.716L1801.57,754.433L1801.64,755.162L1801.64,755.894L1801.56,756.623L1801.4,757.339L1801.17,758.035L1800.87,758.703L1800.51,759.337L1800.07,759.928L1799.58,760.471L1602.88,955.866L1602.34,956.355L1601.74,956.784L1601.11,957.148L1600.44,957.444L1599.74,957.668L1599.02,957.818L1598.29,957.892L1597.56,957.889L1596.83,957.81L1596.12,957.656L1595.42,957.427L1594.75,957.127L1594.12,956.758L1593.53,956.326L1592.98,955.834L1592.5,955.287L1592.07,954.693L1591.7,954.057L1591.41,953.387L1591.18,952.69L1591.03,951.972L1590.96,951.243L1590.96,950.511L1591.04,949.782L1591.19,949.066L1591.42,948.37L1591.72,947.702L1592.09,947.068L1592.53,946.477L1593.02,945.934L1789.71,750.539L1790.26,750.05L1790.85,749.622L1791.49,749.257L1792.16,748.962L1792.86,748.737L1793.58,748.587L1794.3,748.513L1795.04,748.516Z"/>
            </g>
            <g transform="matrix(1,0,0,1,-2,0)">
                <path d="M1795.04,748.516L1795.77,748.595L1796.48,748.749L1797.18,748.978L1797.85,749.278L1798.48,749.647L1799.07,750.08L1799.61,750.572L1800.1,751.118L1800.53,751.712L1800.89,752.348L1801.19,753.018L1801.41,753.716L1801.57,754.433L1801.64,755.162L1801.64,755.894L1801.56,756.623L1801.4,757.339L1801.17,758.035L1800.87,758.704L1800.51,759.337L1800.07,759.928L1799.58,760.471L1602.88,955.866L1602.34,956.355L1601.74,956.784L1601.11,957.148L1600.44,957.444L1599.74,957.668L1599.02,957.818L1598.29,957.892L1597.56,957.889L1596.83,957.81L1596.12,957.656L1595.42,957.427L1594.75,957.127L1594.12,956.758L1593.53,956.326L1592.98,955.834L1592.5,955.287L1592.07,954.693L1591.7,954.057L1591.41,953.387L1591.18,952.69L1591.03,951.972L1590.96,951.243L1590.96,950.511L1591.04,949.782L1591.19,949.066L1591.42,948.37L1591.72,947.702L1592.09,947.068L1592.53,946.477L1593.02,945.934L1789.71,750.539L1790.26,750.05L1790.85,749.622L1791.49,749.257L1792.16,748.962L1792.86,748.737L1793.58,748.587L1794.3,748.513L1795.04,748.516Z"/>
            </g>
            <path d="M1800.63,959.964L124.623,959.964L124.623,121.35L1800.63,121.35L1800.63,959.964ZM138.623,135.35L138.623,945.964L1786.63,945.964L1786.63,135.35L138.623,135.35Z"/>
        </g>
    </g>
</svg>
