<?xml version="1.0" encoding="UTF-8"?>
<!DOCTYPE svg PUBLIC "-//W3C//DTD SVG 1.1//EN" "http://www.w3.org/Graphics/SVG/1.1/DTD/svg11.dtd">
<svg version="1.1" xmlns="http://www.w3.org/2000/svg" xmlns:xlink="http://www.w3.org/1999/xlink" x="0" y="0" width="16" height="64" viewBox="0, 0, 16, 64">
  <g id="Layer_1">
    <path d="M13.689,62.995 L13.305,62.989 L12.66,62.952 L12.101,62.883 L11.594,62.783 L11.131,62.655 L10.704,62.498 L10.306,62.31 L9.933,62.089 L9.583,61.835 L9.257,61.546 L8.955,61.222 L8.677,60.863 L8.425,60.472 L8.198,60.048 L7.996,59.594 L7.818,59.11 L7.664,58.598 L7.531,58.06 L7.419,57.495 L7.326,56.906 L7.218,55.978 L7.127,54.666 L7.082,53.279 L7.07,51.823 L7.076,50.305 L7.086,48.735 L7.087,47.933 L7.087,47.933 C7.087,47.932 7.087,47.932 7.087,47.932 L7.087,47.932 L7.088,34.895 L7.088,34.895 C7.088,34.769 6.993,34.649 6.824,34.556 L6.824,34.556 L2.585,32.25 L2.545,32.947 L6.784,30.89 L6.784,30.89 C6.978,30.796 7.088,30.666 7.088,30.531 L7.088,30.531 L7.088,17.077 L7.088,17.077 C7.088,17.077 7.088,17.076 7.088,17.076 L7.088,17.076 L7.086,16.274 L7.075,14.702 L7.067,13.182 L7.076,11.722 L7.118,10.331 L7.206,9.017 L7.31,8.088 L7.402,7.499 L7.512,6.933 L7.644,6.391 L7.798,5.877 L7.975,5.39 L8.178,4.933 L8.407,4.506 L8.662,4.11 L8.945,3.748 L9.255,3.42 L9.591,3.127 L9.954,2.871 L10.341,2.649 L10.754,2.463 L11.194,2.311 L11.665,2.19 L12.173,2.099 L12.728,2.038 L13.338,2.008 L13.638,2.005 L13.638,2.005 C14.19,1.998 14.626,1.769 14.611,1.493 C14.597,1.217 14.138,0.999 13.585,1.006 L13.118,1.014 L12.271,1.064 L11.471,1.162 L10.722,1.308 L10.03,1.497 L9.398,1.728 L8.826,1.997 L8.312,2.299 L7.853,2.633 L7.444,2.996 L7.08,3.386 L6.758,3.804 L6.474,4.248 L6.225,4.717 L6.008,5.211 L5.82,5.729 L5.658,6.271 L5.522,6.836 L5.408,7.422 L5.314,8.032 L5.207,8.983 L5.118,10.316 L5.077,11.719 L5.067,13.184 L5.075,14.706 L5.086,16.275 L5.088,17.077 L5.088,17.077 L5.088,30.531 L5.392,30.172 L1.152,32.229 L1.152,32.229 C0.764,32.418 0.746,32.727 1.112,32.926 L1.112,32.926 L5.351,35.233 L5.088,34.895 L5.087,47.932 L5.087,47.931 L5.086,48.732 L5.076,50.303 L5.07,51.827 L5.082,53.295 L5.128,54.701 L5.221,56.035 L5.332,56.985 L5.429,57.594 L5.546,58.182 L5.686,58.748 L5.851,59.292 L6.044,59.812 L6.267,60.308 L6.522,60.78 L6.814,61.227 L7.146,61.648 L7.521,62.042 L7.944,62.408 L8.42,62.743 L8.952,63.046 L9.542,63.312 L10.19,63.538 L10.892,63.72 L11.644,63.856 L12.44,63.946 L13.252,63.989 L13.636,63.994 C14.188,64.001 14.647,63.784 14.662,63.508 C14.677,63.231 14.241,63.002 13.689,62.995 L13.689,62.995" fill="#6EDD17"/>
  </g>
</svg>
